<!DOCTYPE svg PUBLIC "-//W3C//DTD SVG 20010904//EN" "http://www.w3.org/TR/2001/REC-SVG-20010904/DTD/svg10.dtd">
<svg version="1.0" xmlns="http://www.w3.org/2000/svg" width="150px" height="150px" viewBox="0 0 1500 1500" preserveAspectRatio="xMidYMid meet">
<g id="layer101" fill="#171716" stroke="none">
<path d="M696 1483 c-22 -11 -43 -14 -89 -8 -56 6 -61 5 -88 -21 -21 -20 -44 -29 -86 -35 -42 -6 -62 -14 -73 -29 -40 -57 -60 -74 -101 -89 -38 -14 -46 -22 -58 -60 -10 -32 -25 -51 -62 -78 -42 -30 -49 -40 -49 -69 0 -43 -21 -93 -49 -118 -20 -18 -21 -26 -15 -87 5 -54 3 -72 -10 -90 -21 -30 -20 -47 4 -103 18 -38 19 -52 11 -84 -15 -53 -14 -57 20 -96 23 -27 33 -50 38 -93 6 -38 14 -61 26 -68 43 -24 69 -54 84 -95 14 -39 22 -46 69 -65 38 -14 58 -30 74 -55 27 -45 34 -50 85 -50 32 0 50 -7 83 -35 46 -39 49 -39 103 -24 33 9 44 7 78 -10 49 -26 55 -26 113 0 39 17 53 19 78 10 48 -17 63 -14 108 24 34 28 50 35 86 35 45 0 49 2 97 64 13 16 43 36 68 45 37 14 46 23 60 60 15 41 46 77 85 99 11 6 20 30 25 66 5 43 15 65 39 93 29 32 31 40 25 77 -10 56 -8 84 10 109 19 28 19 60 -1 99 -12 24 -14 46 -9 92 5 55 4 64 -15 81 -32 29 -50 69 -50 110 0 35 -5 41 -64 88 -16 13 -36 43 -45 68 -14 37 -23 46 -61 60 -31 11 -55 30 -77 60 -35 48 -51 57 -105 58 -27 1 -47 10 -72 31 -33 29 -37 30 -99 24 -52 -5 -70 -3 -88 10 -29 20 -65 20 -103 -1z"/>
</g>
<g id="layer102" fill="#a10202" stroke="none">
<path d="M584 1411 c-149 -41 -278 -126 -368 -245 -64 -84 -86 -127 -115 -220 -73 -237 -2 -508 180 -683 178 -170 435 -233 665 -162 95 29 149 58 232 124 174 139 261 336 249 564 -9 182 -66 310 -197 441 -137 136 -260 190 -455 196 -97 3 -134 0 -191 -15z"/>
</g>
<g id="layer103" fill="#c7baa8" stroke="none">
<path d="M584 1411 c-149 -41 -278 -126 -368 -245 -64 -84 -86 -127 -115 -220 -73 -237 -2 -508 180 -683 178 -170 435 -233 665 -162 95 29 149 58 232 124 174 139 261 336 249 564 -9 182 -66 310 -197 441 -137 136 -260 190 -455 196 -97 3 -134 0 -191 -15z m462 -244 c86 -2 127 -7 139 -17 24 -20 77 -129 71 -146 -6 -16 -33 -19 -38 -5 -1 5 -30 26 -62 45 -48 29 -70 36 -111 36 -28 0 -56 -5 -63 -12 -23 -23 -6 -324 21 -365 5 -7 20 -13 35 -13 54 0 98 -58 56 -74 -30 -12 -249 -7 -262 6 -19 19 -14 40 16 71 l27 28 -3 157 c-3 203 -4 206 -53 225 -26 10 -39 22 -39 34 0 31 16 38 82 35 35 -1 118 -3 184 -5z m-634 -307 c69 0 87 -20 49 -52 -25 -19 -25 -31 0 -98 6 -19 13 -41 15 -47 2 -9 23 -13 57 -13 l54 0 22 63 c11 35 21 69 21 75 0 7 -16 20 -35 29 -19 9 -35 23 -35 30 0 20 243 19 260 -2 18 -22 -2 -41 -49 -49 -33 -5 -41 -11 -54 -44 -8 -21 -18 -60 -22 -87 -3 -28 -15 -84 -26 -125 -33 -121 -38 -143 -44 -189 -8 -63 -21 -81 -55 -81 -36 0 -53 24 -74 105 -19 75 -63 188 -111 285 -21 41 -41 84 -45 96 -5 12 -29 31 -53 42 -56 26 -66 41 -41 59 13 10 33 13 63 9 24 -3 70 -6 103 -6z"/>
</g>
<g id="layer104" fill="#f2f1e3" stroke="none">
<path d="M678 1388 c-132 -13 -268 -75 -358 -164 -46 -44 -70 -55 -70 -31 -1 6 -14 -4 -31 -23 -28 -32 -28 -35 -10 -38 19 -3 19 -6 -9 -50 -97 -158 -116 -391 -45 -565 19 -48 21 -60 10 -71 -19 -18 27 -96 53 -90 11 3 41 -19 89 -65 172 -166 422 -223 648 -147 44 15 101 40 127 56 44 28 47 28 50 9 3 -18 6 -17 41 12 33 27 37 33 23 41 -14 8 -9 18 38 69 60 65 117 171 141 264 21 81 21 233 0 314 -18 70 -63 167 -101 218 -29 39 -30 47 -4 40 16 -4 18 -2 11 12 -10 17 -106 111 -115 111 -2 0 -2 -9 1 -20 7 -26 -1 -25 -40 4 -44 33 -143 81 -197 96 -64 18 -174 26 -252 18z m368 -221 c86 -2 127 -7 139 -17 24 -20 77 -129 71 -146 -6 -16 -33 -19 -38 -5 -1 5 -30 26 -62 45 -48 29 -70 36 -111 36 -28 0 -56 -5 -63 -12 -23 -23 -6 -324 21 -365 5 -7 20 -13 35 -13 54 0 98 -58 56 -74 -30 -12 -249 -7 -262 6 -19 19 -14 40 16 71 l27 28 -3 157 c-3 203 -4 206 -53 225 -26 10 -39 22 -39 34 0 31 16 38 82 35 35 -1 118 -3 184 -5z m-634 -307 c69 0 87 -20 49 -52 -25 -19 -25 -31 0 -98 6 -19 13 -41 15 -47 2 -9 23 -13 57 -13 l54 0 22 63 c11 35 21 69 21 75 0 7 -16 20 -35 29 -19 9 -35 23 -35 30 0 20 243 19 260 -2 18 -22 -2 -41 -49 -49 -33 -5 -41 -11 -54 -44 -8 -21 -18 -60 -22 -87 -3 -28 -15 -84 -26 -125 -33 -121 -38 -143 -44 -189 -8 -63 -21 -81 -55 -81 -36 0 -53 24 -74 105 -19 75 -63 188 -111 285 -21 41 -41 84 -45 96 -5 12 -29 31 -53 42 -56 26 -66 41 -41 59 13 10 33 13 63 9 24 -3 70 -6 103 -6z"/>
<path d="M527 563 c-9 -8 3 -85 16 -101 15 -19 24 -3 31 56 6 50 6 52 -17 52 -13 0 -27 -3 -30 -7z"/>
</g>


</svg>